<svg width="800" height="800" viewBox="0 0 800 800" fill="none" xmlns="http://www.w3.org/2000/svg">
<rect width="800" height="800" fill="#161616"/>
<path d="M632.423 326.792C632.783 327.022 632.922 327.077 633.219 327.46C635.91 330.921 639.882 342.193 641.706 346.632C655.727 380.753 666.069 416.184 664.608 453.409C662.419 509.207 639.05 559.363 598.012 597.189C562.554 630.334 515.304 647.905 466.805 645.98C410.03 643.546 365.083 615.556 327.482 574.677C302.613 546.71 278.998 504.48 278.309 466.304C278.652 466.651 279.001 466.991 279.354 467.328C322.022 507.278 379.763 523.267 437.176 521.599C489.38 520.082 541.52 498.183 577.432 459.969C603.532 432.354 621.323 397.944 628.767 360.683C631.069 349.598 632.779 338.128 632.423 326.792Z" fill="#F0F0F0"/>
<path d="M296.195 260.739C299.319 260.307 302.777 260.499 305.945 260.489C324.934 260.429 343.357 263.668 361.514 269.069C331.446 286.157 306.215 310.608 288.19 340.124C259.668 386.139 250.746 441.654 263.416 494.288C276.472 549.688 315.688 596.804 361.282 629.269C366.938 633.297 372.968 636.864 378.87 640.52C372.577 639.715 366.122 639.693 359.79 639.074C348.7 637.899 337.643 636.422 326.634 634.645C280.679 625.961 236.227 608.896 199.815 578.947C162.335 548.12 140.598 508.418 136.008 459.967C131.452 411.883 147.771 359.601 178.715 322.553C208.788 286.547 249.396 264.977 296.195 260.739Z" fill="#F0F0F0"/>
<path d="M408.463 154.255C422.613 153.142 437.976 154.608 451.948 157.052C504.607 166.263 550.742 199.278 581.044 242.684C604.994 276.991 617.628 316.591 610.03 358.624C601.092 408.071 570.643 448.814 530.274 477.412C529.609 477.882 528.693 477.403 528.69 476.589C528.594 447.913 517.819 412.46 506.187 386.682C505.866 385.894 505.528 385.113 505.177 384.339C479.09 326.282 430.355 276.209 370.229 253.726C337.781 241.593 301.012 238.732 267.368 247.489C255.413 250.6 244.323 255.063 233.146 260.046C232.158 260.486 231.237 259.244 231.939 258.422C238.876 250.296 245.332 241.764 252.565 233.852C293.836 188.711 346.307 157.084 408.463 154.255Z" fill="#F0F0F0"/>
</svg>
